<svg viewBox="0 0 140 240" xmlns="http://www.w3.org/2000/svg" role="img" aria-label="Big Dill THE WHOLE DILL jar">
  <defs>
    <clipPath id="c6"><path d="M28 70 q0-14 14-14 h56 q14 0 14 14 v128 q0 18-18 18 h-48 q-18 0-18-18 z"/></clipPath>
    <linearGradient id="g6" x1="0" y1="0" x2="0" y2="1"><stop offset="0" stop-color="#fbf6ea"/><stop offset="1" stop-color="#f1e8cf"/></linearGradient>
  </defs>
  <!-- lid -->
  <rect x="30" y="34" width="80" height="16" rx="6" fill="#e0a72e"/>
  <rect x="36" y="24" width="68" height="13" rx="6" fill="#cf9620"/>
  <ellipse cx="70" cy="25" rx="34" ry="5" fill="#e0a72e"/>
  <!-- glass + fill -->
  <g clip-path="url(#c6)">
    <rect x="28" y="56" width="84" height="170" fill="url(#g6)"/>
    <rect x="28" y="56" width="84" height="170" fill="#fbf6ea"/><g stroke="#e4d9bf" stroke-width="6"><line x1="28" y1="74" x2="112" y2="74"/><line x1="28" y1="98" x2="112" y2="98"/><line x1="28" y1="122" x2="112" y2="122"/><line x1="28" y1="200" x2="112" y2="200"/></g><rect x="62" y="56" width="16" height="170" fill="#e0a72e" opacity=".9"/><circle cx="70" cy="92" r="10" fill="none" stroke="#e0a72e" stroke-width="6"/>
    <rect x="28" y="56" width="84" height="14" fill="#ffffff" opacity=".28"/>
  </g>
  <path d="M28 70 q0-14 14-14 h56 q14 0 14 14 v128 q0 18-18 18 h-48 q-18 0-18-18 z" fill="none" stroke="#2f5d3a" stroke-width="3.4"/>
  <path d="M42 78 v120" stroke="#ffffff" stroke-width="4" stroke-linecap="round" opacity=".2"/>
  <!-- label -->
  <rect x="40" y="116" width="60" height="56" rx="7" fill="#fbf6ea" stroke="#2f5d3a" stroke-width="3"/>
  <text x="70" y="138" font-family="Georgia, serif" font-size="11" font-weight="700" fill="#2f5d3a" text-anchor="middle">BIG DILL</text>
  <text x="70" y="156" font-family="Georgia, serif" font-size="10" font-weight="700" fill="#2f5d3a" text-anchor="middle">GIFT BOX</text>
</svg>
